<svg width="23" height="23" viewBox="0 0 23 23" fill="none" xmlns="http://www.w3.org/2000/svg">
<path fill-rule="evenodd" clip-rule="evenodd" d="M8.00142 3.62137C8.02496 3.11458 8.34144 2.60344 8.9508 2.19327C9.58157 1.76867 10.4814 1.48987 11.5 1.48987C12.5186 1.48987 13.4184 1.76869 14.0492 2.1933C14.6586 2.60349 14.975 3.11462 14.9986 3.62137H8.00142ZM7 3.62137V3.55944C7 3.52365 7.00376 3.48873 7.01091 3.45506C7.09398 2.59407 7.64355 1.86776 8.39239 1.3637C9.20934 0.813787 10.3095 0.489868 11.5 0.489868C12.6905 0.489868 13.7907 0.813813 14.6076 1.36374C15.3564 1.8678 15.906 2.5941 15.9891 3.45505C15.9962 3.48872 16 3.52364 16 3.55944V3.62137H20H20.5V4.12137V20.1769V20.6769H20H3H2.5V20.1769V4.12137V3.62137H3H7ZM3.5 19.6769V4.62137H19.5V19.6769H3.5Z" fill="#272727"/>
</svg>
