<svg width="23" height="23" viewBox="0 0 23 23" fill="none" xmlns="http://www.w3.org/2000/svg">
<circle cx="11.5" cy="11.5" r="9.5" stroke="#272727"/>
<path fill-rule="evenodd" clip-rule="evenodd" d="M16.7381 11.5C16.7381 15.1209 15.3802 18.3642 13.2376 20.5476H11.7506C14.1254 18.6175 15.7381 15.3441 15.7381 11.5C15.7381 7.0086 13.5365 3.29626 10.4902 1.59534H12.2879C14.9711 3.73032 16.7381 7.36951 16.7381 11.5Z" fill="#272727"/>
<path fill-rule="evenodd" clip-rule="evenodd" d="M6.30196 11.5C6.30196 15.1209 7.65983 18.3642 9.80244 20.5476H11.2894C8.91468 18.6175 7.30196 15.3441 7.30196 11.5C7.30196 7.0086 9.50354 3.29626 12.5498 1.59534H10.7522C8.06897 3.73032 6.30196 7.36951 6.30196 11.5Z" fill="#272727"/>
<path fill-rule="evenodd" clip-rule="evenodd" d="M18.129 4.16663C16.4767 6.04115 14.1161 7.2142 11.4952 7.2142C8.87428 7.2142 6.51367 6.04115 4.86133 4.16663L6.26396 4.16663C7.67751 5.44649 9.51032 6.2142 11.4952 6.2142C13.48 6.2142 15.3128 5.44649 16.7264 4.16663L18.129 4.16663Z" fill="#272727"/>
<path fill-rule="evenodd" clip-rule="evenodd" d="M18.2448 18.9286C16.5946 17.0818 14.2518 15.9286 11.6532 15.9286C9.0545 15.9286 6.71173 17.0818 5.06152 18.9286L6.47493 18.9286C7.88115 17.6773 9.69302 16.9286 11.6532 16.9286C13.6133 16.9286 15.4252 17.6773 16.8314 18.9286L18.2448 18.9286Z" fill="#272727"/>
<rect x="1.5" y="11.0238" width="20" height="0.952381" fill="#272727"/>
<rect x="11.0239" y="21.5" width="20" height="0.952381" transform="rotate(-90 11.0239 21.5)" fill="#272727"/>
</svg>
