<svg width="23" height="23" viewBox="0 0 23 23" fill="none" xmlns="http://www.w3.org/2000/svg">
<path fill-rule="evenodd" clip-rule="evenodd" d="M3.02734 10.2622C3.02734 6.28861 6.25099 3.06677 10.2283 3.06677C14.2056 3.06677 17.4293 6.28861 17.4293 10.2622C17.4293 14.2358 14.2056 17.4576 10.2283 17.4576C6.25099 17.4576 3.02734 14.2358 3.02734 10.2622ZM10.2283 2.06677C5.69938 2.06677 2.02734 5.73565 2.02734 10.2622C2.02734 14.7887 5.69938 18.4576 10.2283 18.4576C12.3132 18.4576 14.2165 17.6801 15.6636 16.3993L20.1883 20.9207L20.8951 20.2134L16.3709 15.6924C17.6517 14.2465 18.4293 12.3452 18.4293 10.2622C18.4293 5.73565 14.7572 2.06677 10.2283 2.06677Z" fill="#272727"/>
</svg>
