<svg width="23" height="23" viewBox="0 0 23 23" fill="none" xmlns="http://www.w3.org/2000/svg">
<path fill-rule="evenodd" clip-rule="evenodd" d="M15.2644 6.76432C15.2644 8.8433 13.579 10.5286 11.5001 10.5286C9.42109 10.5286 7.73575 8.8433 7.73575 6.76432C7.73575 4.68534 9.42109 3 11.5001 3C13.579 3 15.2644 4.68534 15.2644 6.76432ZM13.2033 11.2151C14.9934 10.5297 16.2644 8.79544 16.2644 6.76432C16.2644 4.13306 14.1313 2 11.5001 2C8.8688 2 6.73575 4.13306 6.73575 6.76432C6.73575 8.79543 8.00674 10.5297 9.79677 11.2151C5.40314 11.9271 1.98116 15.3461 1.5 19.6016H2.50767C3.04563 15.3996 6.82533 12.0787 11.5 12.0787C16.1747 12.0787 19.9544 15.3996 20.4923 19.6016H21.5C21.0188 15.3462 17.5969 11.9271 13.2033 11.2151Z" fill="#272727"/>
</svg>
