<svg width="1875" height="294" viewBox="0 0 1875 294" fill="none" xmlns="http://www.w3.org/2000/svg">
<path d="M0 289.381L0.284823 12.1616H242.1V27.2463H50.1288V136.841H211.196V151.772H50.1288V289.381H0Z" fill="#15327D"/>
<path d="M432.219 289.382H381.521V12.1624H432.219V289.382Z" fill="#15327D"/>
<path d="M622.977 12.1624H651.602L886.866 220.116V12.1624H908.085V294H901.534L647.899 70.808V289.536H622.977V12.1624Z" fill="#15327D"/>
<path d="M1392.71 68.0351L1383.88 72.191C1360.95 49.2561 1340.02 33.8636 1320.94 26.1673C1301.28 18.1632 1279.07 14.3151 1254.29 14.3151C1198.32 14.3151 1159.01 33.8636 1136.51 73.1146C1124.55 93.5867 1118.57 118.984 1118.57 149.462C1118.57 201.642 1140.93 237.507 1185.79 257.056C1208.15 266.907 1233.64 271.832 1262.4 271.832C1291.17 271.832 1316.38 266.599 1337.31 256.132C1353.83 247.974 1371.78 234.121 1391.57 214.418L1400.4 218.574C1363.09 266.137 1310.11 289.996 1241.19 289.996C1177.38 289.996 1128.11 272.91 1093.08 238.892C1067.02 213.495 1053.91 183.633 1053.91 149.308C1053.91 122.371 1062.03 97.4348 1078.27 74.6538C1095.5 50.7954 1119.71 32.3243 1150.9 19.0868C1180.94 6.46487 1213.84 0 1249.59 0C1278.5 0 1303.7 4.77169 1325.07 14.1611C1350.84 25.5516 1373.34 43.7148 1392.57 68.3429L1392.71 68.0351Z" fill="#15327D"/>
<path d="M1687.8 5.8495H1697.76L1874.5 289.534H1802.86L1790.62 265.83C1789.34 263.059 1783.64 253.362 1773.67 236.584L1750.31 196.717H1601.49L1545.95 289.534H1517.19L1687.8 5.8495ZM1742.48 181.478L1677.26 69.4207L1610.18 181.478H1742.48Z" fill="#15327D"/>
</svg>
